<svg xmlns="http://www.w3.org/2000/svg" viewBox="0 0 86.62 32"><g id="レイヤー_2" data-name="レイヤー 2"><g id="レイヤー_1-2" data-name="レイヤー 1"><path d="M34,1.07V10.7H32.57V1.07Z" style="fill:#212121"/><path d="M35.62,4.62H37v.57a2.28,2.28,0,0,1,1.66-.73,2.09,2.09,0,0,1,1.65.66A2.75,2.75,0,0,1,40.85,7V10.7H39.44V7.31a2.23,2.23,0,0,0-.25-1.25,1,1,0,0,0-.88-.34,1.06,1.06,0,0,0-1,.46A3.16,3.16,0,0,0,37,7.77V10.7H35.62Z" style="fill:#212121"/><path d="M45.65,5.66l-1.16.62c-.19-.38-.41-.56-.68-.56a.48.48,0,0,0-.33.12.45.45,0,0,0-.14.33q0,.35.81.69a4.76,4.76,0,0,1,1.5.89A1.5,1.5,0,0,1,46,8.84a1.94,1.94,0,0,1-.65,1.47,2.23,2.23,0,0,1-1.52.56,2.2,2.2,0,0,1-2.16-1.49l1.19-.55a3.09,3.09,0,0,0,.38.55.88.88,0,0,0,.62.24c.47,0,.71-.22.71-.65,0-.25-.19-.48-.55-.7l-.43-.2-.43-.21a2.76,2.76,0,0,1-.86-.6,1.48,1.48,0,0,1-.31-1A1.76,1.76,0,0,1,42.57,5a1.92,1.92,0,0,1,1.34-.51A1.84,1.84,0,0,1,45.65,5.66Z" style="fill:#212121"/><path d="M48.4,5.93V10.7H47V5.93h-.6V4.62H47V2.4h1.4V4.62h1.09V5.93Z" style="fill:#212121"/><path d="M49.87,2.1a.89.89,0,0,1,.27-.64.9.9,0,0,1,.64-.26.92.92,0,0,1,.65.26.88.88,0,0,1,.27.65.85.85,0,0,1-.27.64.91.91,0,0,1-1.29,0A.86.86,0,0,1,49.87,2.1Zm1.62,2.52V10.7H50.08V4.62Z" style="fill:#212121"/><path d="M54.37,5.93V10.7H53V5.93h-.6V4.62H53V2.4h1.4V4.62h1.09V5.93Z" style="fill:#212121"/><path d="M57.44,4.62V8.11c0,1,.4,1.51,1.19,1.51s1.19-.51,1.19-1.51V4.62h1.41V8.14A3.63,3.63,0,0,1,61,9.4a2,2,0,0,1-.6.85,2.94,2.94,0,0,1-3.61,0,2.1,2.1,0,0,1-.62-.85A3.62,3.62,0,0,1,56,8.14V4.62Z" style="fill:#212121"/><path d="M64.1,5.93V10.7H62.7V5.93h-.6V4.62h.6V2.4h1.4V4.62h1.09V5.93Z" style="fill:#212121"/><path d="M71.3,8H66.94a1.83,1.83,0,0,0,.49,1.19,1.61,1.61,0,0,0,2,.19,3.94,3.94,0,0,0,.77-.92l1.18.66a4.23,4.23,0,0,1-.58.8,3.33,3.33,0,0,1-.65.55,3,3,0,0,1-.76.31,3.49,3.49,0,0,1-.88.1A2.87,2.87,0,0,1,66.3,10a3.28,3.28,0,0,1-.82-2.33,3.36,3.36,0,0,1,.8-2.33,3,3,0,0,1,4.25,0,3.39,3.39,0,0,1,.77,2.35ZM69.86,6.84a1.36,1.36,0,0,0-1.42-1.12A1.51,1.51,0,0,0,68,5.8a1.47,1.47,0,0,0-.41.22,1.34,1.34,0,0,0-.31.36,1.37,1.37,0,0,0-.2.46Z" style="fill:#212121"/><path d="M73.67,7.62a3,3,0,0,1,.94-2.24,3.32,3.32,0,0,1,4.6,0,3,3,0,0,1,.94,2.28A3.08,3.08,0,0,1,79.21,10a3.23,3.23,0,0,1-2.33.92,3.07,3.07,0,0,1-2.28-.93A3.14,3.14,0,0,1,73.67,7.62Zm1.44,0a2.05,2.05,0,0,0,.48,1.44,1.88,1.88,0,0,0,2.63,0,2,2,0,0,0,.5-1.42,2,2,0,0,0-.5-1.41,1.86,1.86,0,0,0-2.62,0A2,2,0,0,0,75.11,7.64Z" style="fill:#212121"/><path d="M82.6,5.93V10.7H81.19V5.93h-.5V4.62h.5V2.28a2.53,2.53,0,0,1,.4-1.62A2,2,0,0,1,83.19,0a2.65,2.65,0,0,1,.94.22V1.65L84,1.58a1.65,1.65,0,0,0-.74-.23.53.53,0,0,0-.51.26,2.58,2.58,0,0,0-.13,1v2h1.53V5.93Z" style="fill:#212121"/><path d="M36.18,21.1l6.85-7h3.55l-8,8,8,9.63H43.06l-6.33-7.83-.55.55v7.28H33.53V14.08h2.65Z" style="fill:#212121"/><path d="M47.42,16a1.67,1.67,0,0,1,1.66-1.65,1.61,1.61,0,0,1,1.19.49A1.57,1.57,0,0,1,50.76,16a1.6,1.6,0,0,1-.49,1.18,1.56,1.56,0,0,1-1.17.49A1.67,1.67,0,0,1,47.42,16Zm2.95,4.62v11.1H47.81V20.58Z" style="fill:#212121"/><path d="M55.64,23v8.71H53.08V23H52V20.58h1.09V16.51h2.56v4.07h2V23Z" style="fill:#212121"/><path d="M61.91,23v8.71H59.35V23h-1.1V20.58h1.1V16.51h2.56v4.07h2V23Z" style="fill:#212121"/><path d="M75.06,26.73h-8A3.34,3.34,0,0,0,68,28.91a2.7,2.7,0,0,0,2,.8,2.6,2.6,0,0,0,1.59-.46A6.3,6.3,0,0,0,73,27.57l2.16,1.2a8.17,8.17,0,0,1-1.06,1.47,5.5,5.5,0,0,1-1.19,1,4.93,4.93,0,0,1-1.38.58,6.78,6.78,0,0,1-1.61.18,5.23,5.23,0,0,1-4-1.6,6,6,0,0,1-1.5-4.26,6.12,6.12,0,0,1,1.46-4.26,5,5,0,0,1,3.9-1.61,5,5,0,0,1,3.87,1.56,6.17,6.17,0,0,1,1.41,4.3Zm-2.63-2.09a2.46,2.46,0,0,0-2.59-2.05,2.58,2.58,0,0,0-.88.14,2.34,2.34,0,0,0-.74.41,2.53,2.53,0,0,0-.58.64,2.89,2.89,0,0,0-.36.86Z" style="fill:#212121"/><path d="M77.06,20.58h2.57v1a4.22,4.22,0,0,1,3-1.34,3.85,3.85,0,0,1,3,1.22,5,5,0,0,1,.93,3.39v6.8H84.05v-6.2a4.12,4.12,0,0,0-.46-2.27A1.87,1.87,0,0,0,82,22.57a2,2,0,0,0-1.81.85,5.75,5.75,0,0,0-.53,2.9v5.36H77.06Z" style="fill:#212121"/><polygon points="8.18 0.1 0 30.61 30.51 22.44 8.18 0.1" style="fill:#212121"/><polygon points="22.33 0.1 0 22.44 30.51 30.61 22.33 0.1" style="fill:#212121"/></g></g></svg>